<?xml version="1.0" encoding="utf-8"?>
<!-- Generator: Adobe Illustrator 19.0.0, SVG Export Plug-In . SVG Version: 6.00 Build 0)  -->
<svg version="1.1" id="Capa_1" xmlns="http://www.w3.org/2000/svg" xmlns:xlink="http://www.w3.org/1999/xlink" x="0px" y="0px"
	 viewBox="138 -137.2 425.2 425.2" style="enable-background:new 138 -137.2 425.2 425.2;" xml:space="preserve">
<style type="text/css">
	.st0{fill:#FFFFFF;}
	.st1{fill:#F15D2D;}
	.st2{fill:#A54D34;}
	.st3{fill:#2E0000;}
	.st4{fill:#5D2510;}
	.st5{fill:#E9D1B3;}
	.st6{fill:none;stroke:#2E0000;stroke-width:2;stroke-miterlimit:10;}
</style>
<path class="st0" d="M350.6-100.7c-97.3,0-176.1,78.9-176.1,176.1c0,97.3,78.9,176.1,176.1,176.1c97.3,0,176.1-78.9,176.1-176.1
	C526.7-21.9,447.9-100.7,350.6-100.7z"/>
<path class="st1" d="M516,75.4c0,91.4-74.1,165.4-165.4,165.4c-91.4,0-165.4-74.1-165.4-165.4C185.2-16,259.2-90,350.6-90
	C442-90,516-16,516,75.4z"/>
<g>
	<g>
		<path class="st0" d="M350.6,230.6c-85.6,0-155.3-69.6-155.3-155.3c0-85.6,69.6-155.2,155.3-155.2c85.6,0,155.3,69.6,155.3,155.2
			C505.9,161,436.2,230.6,350.6,230.6z M350.6-75.2C267.6-75.2,200-7.6,200,75.4c0,83,67.5,150.6,150.6,150.6
			c83,0,150.6-67.5,150.6-150.6C501.2-7.6,433.6-75.2,350.6-75.2z"/>
	</g>
</g>
<g>
	<path class="st0" d="M270.1-31.3l13.2,18.7l-6.4,5.9L259-21.2l4.5-4.1c4.7,4.1,8.7,7.7,11.8,10.6c-2.7-3.4-5.1-6.5-7.2-9.2
		l-2.6-3.4L270.1-31.3z"/>
	<path class="st0" d="M277.1-36.5l8-5.3l2.5,3.8l-3.2,2.1l2.4,3.6l3-2l2.4,3.6l-3,2l2.7,4.2l3.5-2.3l2.5,3.8l-8.3,5.5L277.1-36.5z"
		/>
	<path class="st0" d="M304.2-51.2l1.9,4.1l-3.1,1.4l7.5,16.5l-5.2,2.4l-7.5-16.5l-3.1,1.4l-1.9-4.1L304.2-51.2z"/>
	<path class="st0" d="M312.7-54.2l9.3-2.5l1.2,4.4l-3.7,1l1.1,4.1l3.5-0.9l1.1,4.2l-3.5,0.9l1.3,4.8l4.1-1.1l1.2,4.4l-9.6,2.6
		L312.7-54.2z"/>
	<path class="st0" d="M331.7-58.6l4.1-0.4c2.7-0.3,4.5-0.3,5.5-0.2c1,0.1,1.8,0.6,2.5,1.4s1.1,2.2,1.3,4.1c0.2,1.8,0.1,3-0.3,3.6
		c-0.4,0.6-1.2,1.1-2.4,1.3c1.2,0.2,2,0.5,2.4,0.9s0.7,0.9,0.9,1.3c0.1,0.4,0.3,1.5,0.5,3.3l0.6,5.9l-5.3,0.5l-0.7-7.5
		c-0.1-1.2-0.3-1.9-0.5-2.2c-0.2-0.3-0.7-0.4-1.5-0.3l1,10.2l-5.7,0.6L331.7-58.6z M337.8-55.3l0.5,5c0.6-0.1,1.1-0.2,1.3-0.4
		c0.2-0.2,0.3-0.8,0.2-1.8l-0.1-1.2c-0.1-0.7-0.2-1.2-0.5-1.4C339-55.3,338.5-55.4,337.8-55.3z"/>
	<path class="st0" d="M360-59.5l-1.2,22.6l-5.7-0.3l1.2-22.6L360-59.5z"/>
	<path class="st0" d="M382.5-56l-4.6,22.2l-4.9-1l-0.9-10.7L370-35.4l-4.7-1l4.6-22.2l4.7,1l1.1,10.6l2.1-10L382.5-56z"/>
	<path class="st0" d="M401.6-49.2L396.2-27l-5.5-2.2l1.2-3.9l-1.9-0.8l-1.8,3.6l-5.5-2.2l11.2-19.9L401.6-49.2z M393.4-36.9
		c0.7-2.5,1.6-5.5,2.7-9.1c-2.2,3.8-3.7,6.6-4.6,8.4L393.4-36.9z"/>
	<path class="st0" d="M412.7-43.8l3.4,2.2c2.3,1.4,3.8,2.5,4.5,3.2c0.7,0.7,1.1,1.6,1.1,2.6c0,1.1-0.4,2.4-1.5,4.1
		c-0.9,1.5-1.8,2.4-2.4,2.7c-0.7,0.3-1.6,0.1-2.7-0.4c0.8,0.9,1.3,1.6,1.3,2.2c0.1,0.6,0,1.1-0.1,1.5s-0.7,1.4-1.7,2.9l-3.2,5.1
		l-4.5-2.8l4-6.4c0.6-1,1-1.7,1-2.1c0-0.3-0.3-0.7-1-1.1l-5.4,8.6l-4.9-3.1L412.7-43.8z M415.5-37.4l-2.7,4.3c0.5,0.3,1,0.5,1.3,0.5
		c0.3,0,0.7-0.4,1.3-1.3l0.7-1.1c0.4-0.6,0.5-1.1,0.4-1.4C416.4-36.8,416.1-37.1,415.5-37.4z"/>
	<path class="st0" d="M440.8-22.6L428-14.6l-5.5,6.1l-4-3.6l5.5-6.1l6.7-13.4l3.9,3.5c-2.3,3.8-4,6.4-4.9,7.6
		c1.9-1.6,4.2-3.4,7.2-5.6L440.8-22.6z"/>
</g>
<g>
	<g>
		<path class="st0" d="M275.7,165.6l-12.7,19l-4.4-3.9l2.5-3.2l-1.5-1.4l-3,2.8l-4.4-4l17.4-14.8L275.7,165.6z M263.7,174.4
			c1.5-2.1,3.4-4.6,5.7-7.6c-3.3,2.8-5.7,4.9-7.2,6.3L263.7,174.4z"/>
		<path class="st0" d="M292.5,177.6l-12.4,18.9l-4.2-2.8l3.1-10.2l-5.6,8.6l-4-2.6l12.4-18.9l4,2.6l-2.9,10.3l5.6-8.5L292.5,177.6z"
			/>
		<path class="st0" d="M303,182.9l-9.8,20.4l-5.2-2.5l9.8-20.4L303,182.9z"/>
		<path class="st0" d="M325.3,190.6l-6.6,21.7l-4.8-1.5l4.5-14.6l-6.4,14l-3.4-1l2.4-14.9l-4.4,14.3l-4.8-1.5l6.6-21.7l7.1,2.2
			c-0.2,1.4-0.4,3-0.8,4.8l-0.9,5.7l4.4-9.7L325.3,190.6z"/>
		<path class="st0" d="M340.7,192.7l0.6,22.9l-5.8-0.7l0.2-4.1l-2-0.2l-0.8,4l-5.9-0.7l5.6-22.1L340.7,192.7z M335.9,206.8
			c0-2.6,0.1-5.8,0.3-9.5c-1.1,4.2-1.8,7.3-2.2,9.3L335.9,206.8z"/>
		<path class="st0" d="M354.4,193l0.3,18.1l3.5-0.1l0.1,4.5l-9.3,0.2l-0.4-22.6L354.4,193z"/>
		<path class="st0" d="M392,196.1l-5.5,1.6l-1.1-3.8c-0.3-1.1-0.6-1.8-0.8-2c-0.2-0.2-0.5-0.3-0.9-0.2c-0.5,0.1-0.7,0.4-0.7,0.7
			c0,0.4,0.1,1.1,0.4,2.2l2.9,10.1c0.3,1.1,0.6,1.7,0.8,2s0.5,0.4,1,0.2c0.4-0.1,0.6-0.4,0.7-0.7s-0.1-1.1-0.5-2.3l-0.8-2.7l5.5-1.6
			l0.2,0.8c0.6,2.3,1,3.9,0.9,4.9c0,1-0.5,2.1-1.3,3.1c-0.9,1-2.1,1.7-3.6,2.2c-1.6,0.5-3,0.6-4.3,0.3s-2.2-0.9-2.8-1.9
			c-0.6-1-1.3-2.5-1.9-4.6l-1.8-6.4c-0.5-1.6-0.7-2.8-0.9-3.6c-0.1-0.8,0-1.7,0.3-2.5c0.3-0.9,0.9-1.7,1.7-2.3
			c0.8-0.7,1.8-1.2,3-1.5c1.6-0.5,3.1-0.5,4.3-0.2c1.2,0.3,2.2,0.9,2.8,1.8c0.6,0.9,1.2,2.3,1.8,4.3L392,196.1z"/>
		<path class="st0" d="M403.4,180.4l12.6,19.1l-5.3,2.5l-2-3.6l-1.9,0.9l1.4,3.8l-5.4,2.5l-7-21.7L403.4,180.4z M406.8,194.8
			c-1.4-2.2-3-4.9-4.8-8.2c1.3,4.2,2.3,7.2,3.1,9.1L406.8,194.8z"/>
		<path class="st0" d="M410.2,176.7l3.4-2.3c2.2-1.5,3.8-2.5,4.7-2.8c0.9-0.4,1.9-0.3,2.9,0c1,0.4,2,1.4,3.1,3
			c1,1.5,1.5,2.6,1.5,3.3s-0.5,1.5-1.5,2.3c1.1-0.4,2-0.5,2.6-0.3c0.6,0.2,1,0.4,1.4,0.7s1,1.2,2,2.7l3.4,4.9l-4.4,3l-4.2-6.2
			c-0.7-1-1.2-1.6-1.5-1.7s-0.8,0-1.5,0.5l5.7,8.5l-4.8,3.2L410.2,176.7z M417.1,176.7l2.8,4.2c0.5-0.4,0.9-0.7,1-1
			c0.1-0.3-0.1-0.9-0.7-1.7l-0.7-1c-0.4-0.6-0.8-0.9-1.1-1C418.1,176.1,417.7,176.3,417.1,176.7z"/>
		<path class="st0" d="M425.3,165.8l7.1-6.5l3,3.4l-2.8,2.6l2.9,3.2l2.7-2.4l2.9,3.2l-2.7,2.4l3.4,3.7l3.1-2.8l3,3.4l-7.4,6.7
			L425.3,165.8z"/>
	</g>
</g>
<g>
	<path class="st0" d="M455.1,36.2c-13.3-9.1-28.3-15.9-44.4-18c-5.4-0.7-11.4-1-16.9,0c-26.5-15-60-15-86.4,0
		c-7.5-1.4-15.8-0.4-23.1,1c-9.2,1.8-18,5.4-26.3,9.7c-8,4.2-17.9,9.6-23.2,17.1c-4.9,6.9-2.7,15,1.5,21.6
		c5.4,8.5,12.8,15.4,17.6,24.4c1.1,2.1,1.8,4,2.2,6.5c-0.1-0.5,0.1,1.1,0.1,1.2c0,1.1,0.2,2.2,0.5,3.3c0.4,2,1.8,3.9,3.1,5.3
		c5,5.5,12.3,3.9,18.3,0.5c3.5,6.7,8,12.7,13.4,18.1c-1.6,12.1,4.3,23.2,14,30.8c12.7,10,29.2,13.9,45.1,14.1
		c24.8,0.2,63.8-14.6,59.3-44.9c5.4-5.3,9.9-11.4,13.4-18c6.8,3.7,15,4.5,20.1-3c2.1-3,1.5-7.1,2.2-9.7c0.9-3.5,3.1-6.8,5.2-9.9
		c6.2-9.4,16.7-17.7,18.4-29.4C470.4,47.1,462.1,41,455.1,36.2z"/>
	<g>
		<g>
			<ellipse class="st2" cx="350.6" cy="78.6" rx="73.9" ry="65.5"/>
			<path class="st3" d="M410.7,40.4c-0.8-5.8-4.1-11.1-15.2-13.9C401.3,30.5,406.4,35.1,410.7,40.4z"/>
			<path class="st4" d="M392.8,24.8c0,0,24.7-7,59.2,16.8c10.4,7.2,16.5,12.3,3.9,27.6c-12.6,15.3-17,22.8-17.2,30.6
				c-0.2,7.8-11.8,8.8-20.9-4.1c-9.1-13-5.9-26.7-7-40.8c-0.8-10,4.9-23.2-15.3-28.3C395.4,26.5,393.5,25.3,392.8,24.8z"/>
			<path class="st4" d="M308.4,24.8c0,0-24.7-7-59.2,16.8c-10.4,7.2-16.5,12.3-3.9,27.6c12.6,15.3,17,22.8,17.2,30.6
				c0.2,7.8,11.8,8.8,20.9-4.1c9.1-13,5.9-26.7,7-40.8c0.8-10-4.9-23.2,15.3-28.3C305.8,26.5,307.7,25.3,308.4,24.8z"/>
			<path class="st5" d="M403.9,131.1c0,19-23.8,34.4-53.3,34.4c-29.4,0-53.3-15.4-53.3-34.4c0-19,23.9-34.4,53.3-34.4
				C380.1,96.7,403.9,112.1,403.9,131.1z"/>
			<path class="st5" d="M337.2,14.2c-4.3,6.4-10.9,20.5-2.8,40.6c11.3,27.9,9.5,41.7-5.1,52l21.3-0.7l21.3,0.7
				c-14.5-10.3-16.4-24.1-5.1-52c8.1-20.1,1.6-34.2-2.8-40.6c-4.4-0.7-8.8-1.1-13.4-1.1C346.1,13.1,341.6,13.5,337.2,14.2z"/>
			<g>
				<path class="st3" d="M381.6,86.4c0,2.1-1.7,3.8-3.8,3.8c-2.1,0-3.8-1.7-3.8-3.8c0-2.1,1.7-3.8,3.8-3.8
					C379.8,82.6,381.6,84.3,381.6,86.4z"/>
				<path class="st3" d="M327.4,86.4c0,2.1-1.7,3.8-3.8,3.8s-3.8-1.7-3.8-3.8c0-2.1,1.7-3.8,3.8-3.8
					C325.7,82.6,327.4,84.3,327.4,86.4z"/>
			</g>
			<path class="st3" d="M307.3,25.6C307.3,25.6,307.3,25.6,307.3,25.6c-0.7,0.5-1.5,0.9-1.5,0.9c-11.2,2.8-14.5,8.2-15.3,14.1
				C295.1,34.8,300.8,29.7,307.3,25.6z"/>
			<g>
				<path class="st6" d="M349.7,126.2l0,18c0,0,0.8,8.4,9.7,8.4"/>
				<path class="st6" d="M349.6,126.2l0,18c0,0-0.8,8.4-9.7,8.4"/>
			</g>
			<path class="st3" d="M367.2,116.2c2.3,4.5-5.4,18.2-17.7,18.2c-12.3,0-19.9-13.7-17.7-18.2c2.2-4.6,9.9-5.7,17.7-5.9
				C357.3,110.5,365,111.5,367.2,116.2z"/>
		</g>
	</g>
</g>
</svg>
