<?xml version="1.0" encoding="utf-8"?>
<!-- Generator: Adobe Illustrator 19.0.0, SVG Export Plug-In . SVG Version: 6.00 Build 0)  -->
<svg version="1.1" id="Camada_1" xmlns="http://www.w3.org/2000/svg" xmlns:xlink="http://www.w3.org/1999/xlink" x="0px" y="0px"
	 viewBox="-50 52 48 48" style="enable-background:new -50 52 48 48;" xml:space="preserve">
<style type="text/css">
	.st0{fill:#FFFFFF;}
	.st1{fill:#CFD8DC;}
	.st2{fill:#40C351;}
</style>
<path class="st0" d="M-48.6,98.8l3.2-11.6c-2-3.4-3-7.3-3-11.2c0-12.4,10.1-22.5,22.5-22.5c6,0,11.7,2.3,15.9,6.6
	C-5.8,64.3-3.5,70-3.5,76c0,12.4-10.1,22.5-22.5,22.5c0,0,0,0,0,0h0c-3.8,0-7.5-0.9-10.7-2.7L-48.6,98.8z"/>
<path class="st0" d="M-48.6,99.4c-0.2,0-0.3-0.1-0.4-0.2c-0.1-0.2-0.2-0.4-0.2-0.6l3.1-11.4c-1.9-3.4-3-7.3-3-11.3
	c0-12.7,10.3-23.1,23.1-23.1c6.2,0,12,2.4,16.3,6.8C-5.3,64-2.9,69.8-2.9,76C-2.9,88.7-13.3,99-26,99c-3.8,0-7.5-0.9-10.8-2.7
	l-11.7,3.1C-48.5,99.4-48.6,99.4-48.6,99.4z"/>
<path class="st1" d="M-26,53.5c6,0,11.7,2.3,15.9,6.6C-5.8,64.3-3.5,70-3.5,76c0,12.4-10.1,22.5-22.5,22.5h0
	c-3.8,0-7.5-0.9-10.7-2.7l-11.9,3.1l3.2-11.6c-2-3.4-3-7.3-3-11.2C-48.4,63.6-38.4,53.5-26,53.5 M-26,98.4L-26,98.4L-26,98.4
	 M-26,98.4L-26,98.4L-26,98.4 M-26,52.3L-26,52.3c-13,0-23.6,10.6-23.7,23.6c0,4,1,7.9,2.9,11.4l-3.1,11.2c-0.1,0.4,0,0.8,0.3,1.1
	c0.2,0.2,0.5,0.4,0.8,0.4c0.1,0,0.2,0,0.3,0l11.5-3c3.3,1.7,7.1,2.7,10.9,2.7c13,0,23.7-10.6,23.7-23.6c0-6.3-2.5-12.3-6.9-16.7
	C-13.7,54.8-19.6,52.3-26,52.3L-26,52.3z"/>
<path class="st2" d="M-12.8,62.8c-3.5-3.5-8.2-5.5-13.2-5.5c-10.3,0-18.7,8.4-18.7,18.7c0,3.5,1,7,2.9,9.9l0.4,0.7l-1.9,6.9l7.1-1.9
	l0.7,0.4c2.9,1.7,6.2,2.6,9.5,2.6h0c10.3,0,18.7-8.4,18.7-18.7C-7.3,71-9.2,66.3-12.8,62.8z"/>
<path class="st0" d="M-31.6,66.6c-0.4-0.9-0.9-1-1.3-1c-0.3,0-0.7,0-1.1,0c-0.4,0-1,0.1-1.5,0.7c-0.5,0.6-2,1.9-2,4.7s2,5.4,2.3,5.8
	s3.9,6.2,9.6,8.5c4.7,1.9,5.7,1.5,6.7,1.4s3.3-1.4,3.8-2.7c0.5-1.3,0.5-2.4,0.3-2.7c-0.1-0.2-0.5-0.4-1.1-0.7
	c-0.6-0.3-3.3-1.6-3.8-1.8c-0.5-0.2-0.9-0.3-1.3,0.3c-0.4,0.6-1.4,1.8-1.8,2.2c-0.3,0.4-0.7,0.4-1.2,0.1c-0.6-0.3-2.4-0.9-4.5-2.8
	c-1.7-1.5-2.8-3.3-3.1-3.9c-0.3-0.6,0-0.9,0.2-1.1c0.3-0.3,0.6-0.7,0.8-1c0.3-0.3,0.4-0.6,0.6-0.9c0.2-0.4,0.1-0.7,0-1
	C-30,70.4-31.1,67.7-31.6,66.6z"/>
</svg>
